<svg xmlns="http://www.w3.org/2000/svg" xmlns:xlink="http://www.w3.org/1999/xlink" width="100" height="100" viewBox="0 0 100 100">
  <defs>
    <style>
      .cls-1 {
        fill-rule: evenodd;
        fill: url(#linear-gradient);
      }
    </style>
    <linearGradient id="linear-gradient" x1="496.406" y1="1338" x2="496.406" y2="1288.19" gradientUnits="userSpaceOnUse">
      <stop offset="0" stop-color="#e2f2ff"/>
      <stop offset="1" stop-color="#528ec1"/>
    </linearGradient>
  </defs>
  <path id="形状_8_拷贝" data-name="形状 8 拷贝" class="cls-1" d="M495.652,1298.32s-5.617.25-9.178,3.88a6.244,6.244,0,0,1-2.621-5.82s1.933-4.21,9.177-5.81h0.138v-2.38h7.765v2.67c4.321,0.61,12.7,2.54,15.7,8.43l-9.178,3.87S504.931,1297.94,495.652,1298.32Zm1.312,10.65c30.322,3.73,17.046,19.37,17.046,19.37-0.919-10.64-18.358-11.62-18.358-11.62-21.946-4.23-19.667-14.52-19.667-14.52a9.961,9.961,0,0,1,3.933-5.82C478.3,1307.68,496.964,1308.97,496.964,1308.97Zm0,18.9s5.618-.25,9.178-3.87a6.206,6.206,0,0,1,2.622,5.81s-1.687,3.66-7.788,5.45l0.041,2.74h-7.932l0.037-2.48c-3.521-.37-13.754-1.98-17.137-8.62l9.178-3.87S487.686,1328.25,496.964,1327.87Z" transform="translate(-446.406 -1263.095)"/>
</svg>
