<svg xmlns="http://www.w3.org/2000/svg" xmlns:xlink="http://www.w3.org/1999/xlink" width="100" height="100" viewBox="0 0 100 100">
  <defs>
    <style>
      .cls-1 {
        fill-rule: evenodd;
        fill: url(#linear-gradient);
      }
    </style>
    <linearGradient id="linear-gradient" x1="359.766" y1="1339" x2="359.766" y2="1288.97" gradientUnits="userSpaceOnUse">
      <stop offset="0" stop-color="#e2f2ff"/>
      <stop offset="1" stop-color="#528ec1"/>
    </linearGradient>
  </defs>
  <path id="形状_15_拷贝_5" data-name="形状 15 拷贝 5" class="cls-1" d="M341.818,1307.34v-4.07a14.615,14.615,0,0,0,5.858-.99,15.893,15.893,0,0,0,2.282-.99,22.02,22.02,0,0,0,7.3-7.15,27.567,27.567,0,0,0,1.94-3.61c0.164-.37.305-0.74,0.457-1.1,0.05-.15.1-0.31,0.151-0.46h22.745v0.04a4.656,4.656,0,0,0-.722,1.22,20.406,20.406,0,0,0-1.218,2.43c-0.484,1.1-.937,2.3-1.406,3.46-0.335.83-.488,1.74-0.762,2.59-0.3.92-.34,1.93-0.57,2.89-0.025.34-.051,0.68-0.076,1.03a8.709,8.709,0,0,0,.5,4.52,8.265,8.265,0,0,0,2.623,3.31,10.043,10.043,0,0,0,1.1.72,0.7,0.7,0,0,1,.532.38,2.984,2.984,0,0,1,.076,1.22v3.04a18.058,18.058,0,0,1-.532,5.33,3.516,3.516,0,0,1-.837,1.86c-1.451,1.1-2.717,2.45-4.07,3.65-0.29.26-1.234,0.87-1.254,1.3a5.749,5.749,0,0,1,.075,2.47,2.809,2.809,0,0,1-1.6,2.24,7.008,7.008,0,0,1-2.473.23h-7.15a3.058,3.058,0,0,1-1.141-.04,5.706,5.706,0,0,0,2.777-1.33,20.919,20.919,0,0,0,4.944-5.7c0.719-1.09,1.761-2.36.989-4.15a6.908,6.908,0,0,0-2.472-2.66,23.984,23.984,0,0,0-4.336-2.44c-0.524-.22-1.02-0.35-1.559-0.57a17.167,17.167,0,0,0-2.663-.87,4.266,4.266,0,0,0-2.206.23,6.589,6.589,0,0,0-3.538,2.89c-0.094.15-.821,1.48-1.254,2.05a9.814,9.814,0,0,0-.571.84,1.271,1.271,0,0,0-.266,1.1,2.094,2.094,0,0,0,.837.88,13.338,13.338,0,0,0,2.357,1.48c0.319,0.14,1.439.49,1.332,0.95a2.112,2.112,0,0,1-.837.91,5.056,5.056,0,0,1-5.173.42,6.66,6.66,0,0,1-1.255-.76,3.494,3.494,0,0,0-.38-0.38h-0.494c-0.235.14-.888,0.18-1.18,0.31a5.219,5.219,0,0,0-2.358,1.97c-0.5.81-1.1,2.85-.456,3.96,1.29,2.22,3.849,3.44,6.161,4.64,0.611,0.32,1.236.58,1.9,0.87a6.714,6.714,0,0,0,1.065.46V1338H354.9a3.044,3.044,0,0,0-.989-0.08,10.059,10.059,0,0,0-2.054.04h-0.57l-2.7.3c-0.657.16-1.373,0.17-2.055,0.35a9.731,9.731,0,0,1-1.9.38c-0.38-.6-0.952-1.08-1.369-1.64-1.086-1.45-2.3-2.77-3.386-4.22-0.305-.41-0.735-0.76-1.027-1.18a7.348,7.348,0,0,1-.494-1.41,22.1,22.1,0,0,0-1.293-2.77,12.5,12.5,0,0,0,1.027-.88,15.666,15.666,0,0,0,3.042-3.35c2.377-3.3,4.431-6.86,6.619-10.38,0.822-1.32,1.6-2.69,2.434-4.03a8.813,8.813,0,0,0,1.065-1.79h-1.065a4.81,4.81,0,0,1-.761.15,3.882,3.882,0,0,0-1.484,1.07,20.765,20.765,0,0,0-2.586,4.87,27.408,27.408,0,0,1-1.445,3.84c-0.97,1.59-2.1,2.96-3.2,4.41-0.544.72-1.361,1.26-1.864,2.02a0.28,0.28,0,0,1-.038-0.04,3.47,3.47,0,0,1-.722-1.03,6.246,6.246,0,0,1-1.255-3.65,5.981,5.981,0,0,1,.266-2.43,1.939,1.939,0,0,1,.5-0.23,9.706,9.706,0,0,0,1.1-.65,13.134,13.134,0,0,0,2.966-2.85,10.082,10.082,0,0,0,1.066-1.37h-0.038c-0.448.42-2.315,1.03-3,.53a2.837,2.837,0,0,1-.76-1.18C338.871,1310.66,337.691,1308.18,341.818,1307.34Z" transform="translate(-309.766 -1263.985)"/>
</svg>
